# xmcd
#
# Track frame offsets: 
#        150
#        16210
#        32919
#        46806
#        60493
#        77404
#        93747
#        110770
#        124696
#        142346
#        160077
#        176170
#        189137
#        203218
#
# Disc length: 2960 seconds
#
# Revision: 0
# Processed by: cddbd v1.5.2PL0 Copyright (c) Steve Scherf et al.
# Submitted via: ExactAudioCopy v0.95b3
#
DISCID=bb0b8e0e
DTITLE=Moses and the Guys with Jobs - Moses and the Guys with Jobs
DYEAR=1999
DGENRE=Crossover
TTITLE0=Tomorrow
TTITLE1=Ave 21
TTITLE2=Time and Place
TTITLE3=Juanita
TTITLE4=Boy Meets Girl
TTITLE5=Connection
TTITLE6=Two Stars
TTITLE7=Automobile
TTITLE8=Nobody Told Me
TTITLE9=Just Growin' Up
TTITLE10=Evangelina
TTITLE11=I'll Be There For You
TTITLE12=The Insanity
TTITLE13=Face I See 
EXTD=
EXTT0=
EXTT1=
EXTT2=
EXTT3=
EXTT4=
EXTT5=
EXTT6=
EXTT7=
EXTT8=
EXTT9=
EXTT10=
EXTT11=
EXTT12=
EXTT13=
PLAYORDER=
